<svg xmlns="http://www.w3.org/2000/svg" viewBox="0 0 1440 800" width="1440" height="800">
  <defs>
    <linearGradient id="sky" x1="0" y1="0" x2="0" y2="1"><stop offset="0%" stop-color="#0b2b4a"/><stop offset="100%" stop-color="#1a4a6e"/></linearGradient>
    <linearGradient id="road" x1="0" y1="0" x2="0" y2="1"><stop offset="0%" stop-color="#2d3436"/><stop offset="100%" stop-color="#1a1e22"/></linearGradient>
  </defs>
  <rect width="1440" height="800" fill="url(#sky)"/>
  <ellipse cx="720" cy="160" rx="300" ry="60" fill="#1a73e8" opacity=".06"/>
  <ellipse cx="720" cy="200" rx="500" ry="80" fill="#4a9af5" opacity=".04"/>
  <rect x="0" y="500" width="1440" height="300" fill="url(#road)" rx="0"/>
  <rect x="0" y="500" width="1440" height="6" fill="#1a73e8" opacity=".3"/>
  <rect x="0" y="506" width="1440" height="3" fill="#fff" opacity=".15"/>
  <line x1="0" y1="650" x2="1440" y2="650" stroke="#fff" stroke-dasharray="30 20" stroke-width="2" opacity=".12"/>
  <line x1="0" y1="720" x2="1440" y2="720" stroke="#fff" stroke-dasharray="30 20" stroke-width="2" opacity=".08"/>
  <rect x="0" y="788" width="1440" height="12" fill="#0b2b4a" opacity=".5"/>
  <g transform="translate(900,420)" opacity=".15">
    <rect x="-60" y="-20" width="120" height="40" rx="6" fill="#1a73e8"/>
    <rect x="-70" y="-12" width="10" height="24" rx="3" fill="#4a9af5"/>
    <rect x="60" y="-12" width="10" height="24" rx="3" fill="#4a9af5"/>
    <circle cx="-40" cy="16" r="10" fill="#1a1e22"/>
    <circle cx="40" cy="16" r="10" fill="#1a1e22"/>
  </g>
  <g transform="translate(400,430) scale(1.2)" opacity=".12">
    <rect x="-60" y="-20" width="120" height="40" rx="6" fill="#1a73e8"/>
    <rect x="-70" y="-12" width="10" height="24" rx="3" fill="#4a9af5"/>
    <rect x="60" y="-12" width="10" height="24" rx="3" fill="#4a9af5"/>
    <circle cx="-40" cy="16" r="10" fill="#1a1e22"/>
    <circle cx="40" cy="16" r="10" fill="#1a1e22"/>
  </g>
  <g fill="#1a73e8" opacity=".04">
    <circle cx="1200" cy="400" r="80"/>
    <circle cx="1300" cy="350" r="50"/>
    <circle cx="200" cy="380" r="60"/>
    <circle cx="100" cy="300" r="40"/>
  </g>
</svg>
